Coordinates
version=1
nRows=31
nColumns=38
inDegrees=no

Units are S.I. units (second, meters, Newtons, ...)
If the header above contains a line with 'inDegrees', this indicates whether rotational values are in degrees (yes) or radians (no).

endheader
time	pelvis_tilt	pelvis_list	pelvis_rotation	pelvis_tx	pelvis_ty	pelvis_tz	hip_flexion_r	hip_adduction_r	hip_rotation_r	knee_angle_r	ankle_angle_r	subtalar_angle_r	mtp_angle_r	hip_flexion_l	hip_adduction_l	hip_rotation_l	knee_angle_l	ankle_angle_l	subtalar_angle_l	mtp_angle_l	lumbar_extension	lumbar_bending	lumbar_rotation	arm_flex_r	arm_add_r	arm_rot_r	elbow_flex_r	pro_sup_r	wrist_flex_r	wrist_dev_r	arm_flex_l	arm_add_l	arm_rot_l	elbow_flex_l	pro_sup_l	wrist_flex_l	wrist_dev_l
1.31	2.9904	1.43293	-1.35904	0.569094	1.03657	1.07553	0.319409	-0.0212315	0.0791325	0.670002	-0.268582	0	0	-0.302554	-0.0329209	-0.291919	0.261191	-0.194053	0	0	-0.382082	0.136013	0.0773974	0.377415	-0.801595	1.2411	1.07039	0.484417	0	0	-0.0175681	-0.350921	0.400058	0.871093	1.01369	0	0
1.32	2.98407	1.43801	-1.35215	0.568237	1.04737	1.07363	0.326042	-0.021288	0.0701848	0.633994	-0.25823	0	0	-0.30706	-0.0339068	-0.296847	0.264742	-0.189998	0	0	-0.376386	0.137005	0.0764985	0.375059	-0.801493	1.24069	1.07033	0.483163	0	0	-0.0198128	-0.349316	0.398179	0.868558	1.01454	0	0
1.33	2.97782	1.4429	-1.34503	0.567504	1.0583	1.07167	0.330389	-0.0213098	0.0605793	0.596416	-0.244174	0	0	-0.31148	-0.0353497	-0.302039	0.269167	-0.185822	0	0	-0.370892	0.137844	0.0754931	0.371787	-0.801398	1.23912	1.07094	0.482026	0	0	-0.0225981	-0.348203	0.395691	0.867001	1.01571	0	0
1.34	2.96911	1.44741	-1.33488	0.566835	1.06943	1.06969	0.331937	-0.0205083	0.051896	0.557605	-0.225688	0	0	-0.315948	-0.0376615	-0.30734	0.274514	-0.181109	0	0	-0.365354	0.139165	0.0742589	0.367461	-0.80138	1.23653	1.07197	0.481781	0	0	-0.0258416	-0.347191	0.392729	0.86575	1.01759	0	0
1.35	2.95995	1.45186	-1.32364	0.566145	1.0808	1.06761	0.332352	-0.0196192	0.0437076	0.52072	-0.207585	0	0	-0.320331	-0.04025	-0.312603	0.28025	-0.177238	0	0	-0.359219	0.140726	0.0724157	0.362489	-0.80155	1.23414	1.07346	0.483078	0	0	-0.0296139	-0.346469	0.38991	0.86469	1.01989	0	0
1.36	2.94936	1.4562	-1.31001	0.565511	1.09238	1.06547	0.33189	-0.0183869	0.0359601	0.48609	-0.192814	0	0	-0.324333	-0.043621	-0.316963	0.286968	-0.173583	0	0	-0.352538	0.142438	0.0696379	0.356854	-0.80118	1.2317	1.07468	0.485954	0	0	-0.0338373	-0.346308	0.387058	0.863826	1.02223	0	0
1.37	2.9407	1.45964	-1.29863	0.565047	1.10401	1.06335	0.331163	-0.0167092	0.0298909	0.457908	-0.182515	0	0	-0.329039	-0.0471289	-0.32138	0.294435	-0.170658	0	0	-0.347004	0.143877	0.0672581	0.350397	-0.80109	1.22736	1.07664	0.487579	0	0	-0.0382649	-0.346784	0.384362	0.863874	1.024	0	0
1.38	2.93231	1.46199	-1.28856	0.56482	1.11573	1.06126	0.33032	-0.0137407	0.0279206	0.437556	-0.173913	0	0	-0.334776	-0.0510442	-0.327355	0.302554	-0.16774	0	0	-0.342866	0.145312	0.0660223	0.343761	-0.801638	1.22231	1.07974	0.489013	0	0	-0.0428549	-0.347308	0.381205	0.864371	1.02585	0	0
1.39	2.92382	1.46363	-1.27855	0.564664	1.12758	1.05918	0.330045	-0.010377	0.0302927	0.427673	-0.16614	0	0	-0.341049	-0.0554459	-0.333932	0.311361	-0.165223	0	0	-0.339372	0.147048	0.0650666	0.336795	-0.802735	1.21686	1.08379	0.490264	0	0	-0.0477311	-0.347837	0.377892	0.86516	1.02799	0	0
1.4	2.9132	1.46558	-1.26467	0.564354	1.13976	1.05697	0.332226	-0.00718221	0.0331777	0.432051	-0.159172	0	0	-0.346512	-0.060796	-0.33889	0.321249	-0.162728	0	0	-0.33435	0.14945	0.0624008	0.328442	-0.803454	1.2107	1.08771	0.491419	0	0	-0.0534884	-0.348427	0.374428	0.865661	1.03062	0	0
1.41	2.90198	1.46771	-1.25015	0.564104	1.15212	1.05465	0.336698	-0.00357915	0.0390874	0.448976	-0.15637	0	0	-0.351427	-0.0664697	-0.343564	0.332074	-0.160535	0	0	-0.328614	0.151901	0.0596037	0.319396	-0.804349	1.20423	1.09236	0.492739	0	0	-0.0599268	-0.349171	0.370593	0.866628	1.03313	0	0
1.42	2.891	1.46991	-1.23599	0.563949	1.16464	1.05221	0.342608	0.000629428	0.0473602	0.475303	-0.158126	0	0	-0.355715	-0.0724251	-0.348498	0.344263	-0.158585	0	0	-0.322305	0.154282	0.0568994	0.3092	-0.805539	1.19669	1.09778	0.493904	0	0	-0.067058	-0.350071	0.366332	0.868247	1.03522	0	0
1.43	2.88102	1.47149	-1.22307	0.563989	1.17735	1.04975	0.347269	0.0055292	0.0576769	0.504055	-0.16105	0	0	-0.360101	-0.0790423	-0.354139	0.357932	-0.15728	0	0	-0.316238	0.156523	0.0545565	0.299204	-0.806867	1.19036	1.10354	0.496449	0	0	-0.0748118	-0.351523	0.362147	0.870717	1.03745	0	0
1.44	2.87382	1.47183	-1.21315	0.564203	1.1902	1.04741	0.34977	0.0110327	0.0683687	0.530922	-0.163027	0	0	-0.364957	-0.0863306	-0.360142	0.373578	-0.156936	0	0	-0.311351	0.158679	0.0524965	0.288235	-0.808032	1.18225	1.10948	0.498536	0	0	-0.0828512	-0.353573	0.358015	0.87405	1.03975	0	0
1.45	2.86809	1.47072	-1.20465	0.564514	1.20313	1.04531	0.351279	0.0167448	0.0777889	0.554918	-0.168346	0	0	-0.369994	-0.0945632	-0.365827	0.391504	-0.157881	0	0	-0.307933	0.161211	0.0506017	0.276724	-0.808926	1.17298	1.11531	0.50021	0	0	-0.0905821	-0.355729	0.354035	0.877294	1.04203	0	0
1.46	2.85905	1.46872	-1.19123	0.56473	1.21624	1.04349	0.352857	0.0222484	0.0843305	0.577391	-0.180745	0	0	-0.373614	-0.104711	-0.369387	0.412802	-0.160499	0	0	-0.304651	0.164758	0.0472841	0.264935	-0.808974	1.16388	1.12018	0.502586	0	0	-0.0979761	-0.357541	0.350066	0.879143	1.04389	0	0
1.47	2.84797	1.46535	-1.17568	0.565026	1.22933	1.04213	0.352552	0.0283899	0.0920506	0.59775	-0.197527	0	0	-0.375939	-0.116493	-0.372051	0.438071	-0.165377	0	0	-0.303016	0.169015	0.0440949	0.253494	-0.808569	1.15447	1.12446	0.504643	0	0	-0.104456	-0.358946	0.346316	0.879913	1.04551	0	0
1.48	2.83457	1.46162	-1.15855	0.565522	1.24237	1.04121	0.349518	0.0347722	0.100141	0.613454	-0.214308	0	0	-0.375537	-0.129569	-0.37466	0.468227	-0.172898	0	0	-0.30221	0.173331	0.0418522	0.24271	-0.807318	1.14544	1.12757	0.506453	0	0	-0.109844	-0.359821	0.34283	0.879309	1.04761	0	0
1.49	2.81966	1.45755	-1.14041	0.566284	1.25533	1.04076	0.342726	0.0408836	0.105809	0.622266	-0.230669	0	0	-0.37202	-0.14427	-0.377355	0.50393	-0.18345	0	0	-0.302104	0.177498	0.0404338	0.233233	-0.804728	1.13819	1.12894	0.508753	0	0	-0.113761	-0.36051	0.340095	0.877128	1.05065	0	0
1.5	2.8052	1.45239	-1.12332	0.56724	1.26812	1.04092	0.33311	0.047587	0.108847	0.628035	-0.246501	0	0	-0.366091	-0.160584	-0.37996	0.545151	-0.197856	0	0	-0.30371	0.181812	0.0400315	0.225907	-0.801213	1.13345	1.12876	0.511661	0	0	-0.115915	-0.360636	0.337974	0.873061	1.05413	0	0
1.51	2.79128	1.44685	-1.10812	0.568314	1.28064	1.04165	0.324724	0.0552356	0.110423	0.637695	-0.260443	0	0	-0.356664	-0.177502	-0.382405	0.592188	-0.216224	0	0	-0.306632	0.18613	0.0412816	0.219855	-0.797397	1.12903	1.1272	0.51312	0	0	-0.116081	-0.359506	0.336298	0.866626	1.05761	0	0
1.52	2.77548	1.44296	-1.0915	0.569371	1.2929	1.04269	0.320451	0.062414	0.107108	0.652374	-0.271679	0	0	-0.340955	-0.194274	-0.382	0.645099	-0.238127	0	0	-0.308288	0.189984	0.0429557	0.214451	-0.792634	1.12478	1.12348	0.512522	0	0	-0.114629	-0.357424	0.335432	0.857656	1.06146	0	0
1.53	2.76657	1.43901	-1.08254	0.570424	1.30481	1.04415	0.316161	0.0691878	0.104056	0.668662	-0.279699	0	0	-0.322006	-0.209898	-0.378597	0.701024	-0.263868	0	0	-0.311391	0.192952	0.0452369	0.212163	-0.787583	1.12411	1.11862	0.511269	0	0	-0.111847	-0.355278	0.335161	0.848349	1.06569	0	0
1.54	2.76999	1.4346	-1.08678	0.571408	1.31639	1.04598	0.307936	0.0740287	0.0992474	0.680389	-0.285912	0	0	-0.302018	-0.223219	-0.373013	0.756593	-0.300981	0	0	-0.3165	0.194435	0.0479647	0.213947	-0.783252	1.12858	1.11373	0.50888	0	0	-0.10862	-0.353009	0.33383	0.839838	1.07243	0	0
1.55	2.78896	1.43056	-1.10752	0.572347	1.32763	1.04796	0.295741	0.0748776	0.0891476	0.68644	-0.289065	0	0	-0.281258	-0.23254	-0.365139	0.811278	-0.332598	0	0	-0.322929	0.193251	0.051069	0.218198	-0.77949	1.13589	1.10947	0.505288	0	0	-0.105331	-0.351809	0.332664	0.83357	1.07798	0	0
1.56	2.8187	1.42537	-1.13708	0.573034	1.33889	1.05021	0.277433	0.0727507	0.0756212	0.686658	-0.289566	0	0	-0.261272	-0.24034	-0.355052	0.86437	-0.364981	0	0	-0.330309	0.19095	0.0519554	0.224482	-0.775481	1.14677	1.10521	0.497765	0	0	-0.102735	-0.351858	0.331011	0.829084	1.0826	0	0
1.57	2.85308	1.41972	-1.16924	0.573516	1.35017	1.05255	0.255715	0.0682562	0.0592001	0.683268	-0.28818	0	0	-0.24116	-0.246926	-0.342817	0.916212	-0.390459	0	0	-0.337538	0.187849	0.0507777	0.230585	-0.771058	1.15745	1.10105	0.486941	0	0	-0.100499	-0.353688	0.330631	0.826193	1.08412	0	0
1.58	2.88901	1.41466	-1.20346	0.574032	1.36119	1.05483	0.234091	0.0625169	0.042115	0.679455	-0.285547	0	0	-0.220385	-0.25142	-0.331634	0.96568	-0.409938	0	0	-0.344523	0.183496	0.0502327	0.236259	-0.767041	1.16668	1.09771	0.475523	0	0	-0.0980118	-0.35666	0.331582	0.824554	1.08411	0	0
1.59	2.92305	1.40962	-1.23645	0.574564	1.37191	1.05715	0.212404	0.0570334	0.0268692	0.675137	-0.282469	0	0	-0.199926	-0.254359	-0.321687	1.01138	-0.418564	0	0	-0.351895	0.178759	0.0507987	0.242213	-0.763925	1.17585	1.0953	0.465302	0	0	-0.0948241	-0.360073	0.333393	0.8238	1.083	0	0
1.6	2.95289	1.40432	-1.26537	0.574998	1.38238	1.05959	0.190745	0.0524443	0.0139183	0.66972	-0.28099	0	0	-0.180403	-0.256436	-0.313207	1.05305	-0.409987	0	0	-0.359667	0.174418	0.0520304	0.248104	-0.761751	1.1847	1.09378	0.457536	0	0	-0.0908453	-0.363471	0.335788	0.823355	1.08174	0	0
1.61	2.97877	1.39839	-1.29058	0.575332	1.39265	1.06221	0.168831	0.0488695	0.00287607	0.663213	-0.281801	0	0	-0.162413	-0.258227	-0.307611	1.09039	-0.391359	0	0	-0.368362	0.170622	0.0539306	0.254262	-0.760397	1.19381	1.09297	0.452049	0	0	-0.0864079	-0.36641	0.337842	0.823145	1.08057	0	0
